<svg id="Layer_1" data-name="Layer 1" xmlns="http://www.w3.org/2000/svg" width="532.04" height="337.54" viewBox="0 0 532.04 337.54">
  <defs>
    <style>
      .cls-1 {
        font-size: 48px;
        fill: red;
      }

      .cls-1, .cls-5 {
        font-family: MarcellusSC-Regular, Marcellus SC;
      }

      .cls-2 {
        fill: #22b573;
      }

      .cls-3 {
        fill: #fff;
      }

      .cls-4 {
        stroke: #000;
        stroke-miterlimit: 10;
      }

      .cls-5 {
        font-size: 100px;
      }
    </style>
  </defs>
  <title>lorenzologo</title>
  <text x="-345.96" y="-164.44"></text>
  <g>
    <text class="cls-1" transform="translate(132.54 235.06)">P<tspan class="cls-2" x="24.59" y="0">I</tspan><tspan x="37.31" y="0">ZZ</tspan><tspan class="cls-2" x="98.95" y="0">E</tspan><tspan x="122.48" y="0">RI</tspan><tspan class="cls-2" x="163.57" y="0">A</tspan></text>
    <text x="-345.96" y="-164.44"></text>
    <text x="-345.96" y="-164.44"></text>
    <g>
      <g>
        <polyline points="51.48 112.79 45.02 111.23 45.46 115.57 52.48 114.9"/>
        <g>
          <path class="cls-3" d="M459,272l-3-54s21-4,26-14,14-15,1-26l-23-1s-22.12-12.76-31.56-9.88c0,0-15.87-3.12-26.66,8.38L390,189l-33.48,12.42-9.95,19.71L351,233l16.15,6.38,18-4.31,7.1-10.43L393,227l-1.8,50.84Z" transform="translate(-345.96 -164.44)"/>
          <path d="M471.54,184.92s16.74,10.76-3.49,17.7C468.05,202.62,481.71,198,471.54,184.92Z" transform="translate(-345.96 -164.44)"/>
          <g>
            <path class="cls-4" d="M460.64,271.1l-3.38-51.56s32.68-6.51,32.67-30.21-30.24-11.74-30.24-11.74-36.95-35-70.1,11.46c0,0-58.94,8.23-39,43.73,0,0,26.07,18.88,42-5.88l-2.21,53.17,2.06-.13,1.88-58.14-4.27,5.89s-10.23,17.52-37.43,4.95c0,0-18.08-31.25,37.6-41.76,0,0,21.4-44.45,68-11.95l2.14,1.11s65.87-4.94-2.7,37.61l-2.06.13,2.94,52.83-64.76,6.12-.31,3.14,67.81-6.94Z" transform="translate(-345.96 -164.44)"/>
            <path class="cls-4" d="M375,227.43s-15.75-11.44,6.57-26C381.61,201.42,369.47,213.45,375,227.43Z" transform="translate(-345.96 -164.44)"/>
            <path class="cls-4" d="M419,180.26s17.46-9.88,22.64,6C441.64,186.26,441.23,180.05,419,180.26Z" transform="translate(-345.96 -164.44)"/>
            <text x="-345.96" y="-164.44"></text>
          </g>
          <path d="M414,219s-13,1-13-1c0,0,17-8,28-2C429,216,425,219,414,219Z" transform="translate(-345.96 -164.44)"/>
        </g>
      </g>
      <g>
        <text class="cls-5" transform="translate(5.71 168.77)">Lorenzo’s</text>
        <path d="M421.45,311.66s.87-1.48-.78-1c0,0-1.66,1.22-.09,2.35a2.5,2.5,0,0,0,3.05-.52,9.81,9.81,0,0,1,2.78-2.18s3.48-.61,3.65.87c0,0-.17-1.39,3.4-.87a2.1,2.1,0,0,1,1.22.61,12.56,12.56,0,0,0,2.78,2.17,2.13,2.13,0,0,0,2.7-.78,1.43,1.43,0,0,0-.52-1.48s-.87-.69-1.13,0c0,0-.27.35.17,1a1.25,1.25,0,0,1-.44-1.13s.09-.44.87-.61a1.41,1.41,0,0,1,1.4.78,5,5,0,0,1,.43,2.53,3.38,3.38,0,0,1-1.13,2.43,4.94,4.94,0,0,1-3.31,1.39s-2,.09-2.08-.17a13.47,13.47,0,0,1-3-1.13s-1.31-.61-1.4-1.31a3.45,3.45,0,0,1-2.26,1.74,8,8,0,0,1-4.78.79,4.58,4.58,0,0,1-3.48-2.35s-1-1.39,0-3.83a1.53,1.53,0,0,1,1.65-.87s.52.17.61.52A.86.86,0,0,1,421.45,311.66Z" transform="translate(-345.96 -164.44)"/>
      </g>
    </g>
  </g>
</svg>
